# xmcd
#
# Track frame offsets:
# 150
# 12503
# 79996
# 100932
# 113722
# 155702
# 196269
# 268067
# 317110
#
# Disc length: 4443 seconds
#
#
# Revision: 1
# Processed by: cddbd v1.5.1PL2 Copyright (c) Steve Scherf et al.
# Submitted via: FreeRIP 2.30 
#
DISCID=77115909
DTITLE=Nikos Zwidakis - Mia Bridia me to Niko Zwidaki kai tin parea tou
DYEAR=1900
DGENRE=
TTITLE0=Prologos
TTITLE1=Syrta
TTITLE2=Malebiziotis
TTITLE3=Mayra mou matia
TTITLE4=Mantinades
TTITLE5=Kalamatiana
TTITLE6=Mantinades_
TTITLE7=Nysiotika,Sylibrianos Mpalos kai Roditiki Sousta
TTITLE8=Ntournarakia
EXTD=
EXTT0=
EXTT1=
EXTT2=
EXTT3=
EXTT4=
EXTT5=
EXTT6=
EXTT7=
EXTT8=
PLAYORDER=
